<?xml version="1.0" encoding="utf-8"?>
<!-- Generator: Adobe Illustrator 21.1.0, SVG Export Plug-In . SVG Version: 6.00 Build 0)  -->
<svg version="1.1" id="Layer_1" xmlns="http://www.w3.org/2000/svg" xmlns:xlink="http://www.w3.org/1999/xlink" x="0px" y="0px"
	 width="18" height="20" viewBox="0 0 18 20" xml:space="preserve">
    <path fill-rule="evenodd" clip-rule="evenodd" d="M0 4.83C0 1.78 1.77 0 4.81 0H13.191C16.28 0 18 1.78 18 4.83V15.16C18 18.26 16.28 20 13.191 20H4.81C1.77 20 0 18.26 0 15.16V4.83ZM5.50644 5.68069L5.50622 5.6793C5.43895 5.25459 5.71408 4.85564 6.12166 4.79108L13.2149 3.61683C13.6216 3.55242 14.0075 3.84668 14.0747 4.27138C14.0924 4.38314 14.0863 4.49306 14.0603 4.59554C14.0608 4.60619 14.061 4.61689 14.061 4.62765V13.8795C14.061 13.9956 14.0354 14.1058 13.9896 14.2049C13.887 15.2132 13.0354 16 12 16C10.8954 16 10 15.1046 10 14C10 12.8954 10.8954 12 12 12C12.1727 12 12.3402 12.0219 12.5 12.063V9.17319L7.061 10.0831V14.8795C7.061 14.9956 7.03543 15.1058 6.98963 15.2049C6.88703 16.2132 6.0354 17 5 17C3.89543 17 3 16.1046 3 15C3 13.8954 3.89543 13 5 13C5.17265 13 5.34019 13.0219 5.5 13.063V5.78133C5.5 5.74722 5.50219 5.71363 5.50644 5.68069ZM12.5 5.31739V7.59055L7.061 8.50051V6.21779L12.5 5.31739Z" fill="#242833" />
</svg>